<svg xmlns="http://www.w3.org/2000/svg" width="25" height="25" viewBox="0 0 25 25">
  <g id="close" transform="translate(0.006 0.003)">
    <path id="Path_11027" data-name="Path 11027" d="M1.215,25a1.221,1.221,0,0,1-.863-2.084L22.91.354a1.221,1.221,0,0,1,1.727,1.727L2.078,24.639A1.217,1.217,0,0,1,1.215,25Z" transform="translate(0 0)" fill="#12686e"/>
    <path id="Path_11028" data-name="Path 11028" d="M23.776,25a1.217,1.217,0,0,1-.863-.357L.354,2.081A1.221,1.221,0,1,1,2.081.354L24.639,22.913A1.221,1.221,0,0,1,23.776,25Z" transform="translate(-0.002 0)" fill="#12686e"/>
  </g>
</svg>
